<svg width="52" height="52" viewBox="0 0 52 52" fill="none" xmlns="http://www.w3.org/2000/svg">
<path d="M14.625 26.0001H36.2917M36.2917 26.0001L30.3333 31.9584M36.2917 26.0001L30.3333 20.0417" stroke="white" stroke-width="2" stroke-linecap="round" stroke-linejoin="round"/>
<path d="M4.33337 32.4999V19.4999C4.33337 17.2014 5.24647 14.997 6.87178 13.3717C8.4971 11.7463 10.7015 10.8333 13 10.8333H39C41.2986 10.8333 43.503 11.7463 45.1283 13.3717C46.7536 14.997 47.6667 17.2014 47.6667 19.4999V32.4999C47.6667 34.7985 46.7536 37.0029 45.1283 38.6282C43.503 40.2535 41.2986 41.1666 39 41.1666H13C10.7015 41.1666 8.4971 40.2535 6.87178 38.6282C5.24647 37.0029 4.33337 34.7985 4.33337 32.4999Z" stroke="white" stroke-width="2"/>
</svg>
